<?xml version="1.0" encoding="UTF-8" standalone="no"?>
<!-- Created with Inkscape (http://www.inkscape.org/) -->

<svg
   xmlns:dc="http://purl.org/dc/elements/1.1/"
   xmlns:cc="http://creativecommons.org/ns#"
   xmlns:rdf="http://www.w3.org/1999/02/22-rdf-syntax-ns#"
   xmlns:svg="http://www.w3.org/2000/svg"
   xmlns="http://www.w3.org/2000/svg"
   xmlns:sodipodi="http://sodipodi.sourceforge.net/DTD/sodipodi-0.dtd"
   xmlns:inkscape="http://www.inkscape.org/namespaces/inkscape"
   width="153.85001mm"
   height="135mm"
   viewBox="0 0 545.13782 478.34645"
   id="svg2"
   version="1.1"
   inkscape:version="0.91 r13725"
   inkscape:export-filename="/home/michele/polimi/ingegneria del software/Progetto/software-eng-escape/src/main/resources/resources/artwork/celle/player-here.png"
   inkscape:export-xdpi="90"
   inkscape:export-ydpi="90"
   sodipodi:docname="player-marker.svg">
  <defs
     id="defs4" />
  <sodipodi:namedview
     id="base"
     pagecolor="#ffffff"
     bordercolor="#666666"
     borderopacity="1.0"
     inkscape:pageopacity="0.0"
     inkscape:pageshadow="2"
     inkscape:zoom="0.98994949"
     inkscape:cx="241.38276"
     inkscape:cy="275.11679"
     inkscape:document-units="px"
     inkscape:current-layer="layer1"
     showgrid="false"
     units="pt"
     inkscape:window-width="1366"
     inkscape:window-height="708"
     inkscape:window-x="-4"
     inkscape:window-y="0"
     inkscape:window-maximized="1" />
  <metadata
     id="metadata7">
    <rdf:RDF>
      <cc:Work
         rdf:about="">
        <dc:format>image/svg+xml</dc:format>
        <dc:type
           rdf:resource="http://purl.org/dc/dcmitype/StillImage" />
        <dc:title />
      </cc:Work>
    </rdf:RDF>
  </metadata>
  <g
     inkscape:label="Livello 1"
     inkscape:groupmode="layer"
     id="layer1"
     transform="translate(0,-574.01575)">
    <g
       transform="matrix(0.5892298,0,0,0.5892298,-83.828109,587.92844)"
       id="g3338">
      <path
         style="fill:#f8dea7"
         d="m 608.75,668.69303 c -4.20511,-0.78007 -93.90279,-43.12896 -104.56744,-49.36935 -3.41229,-1.99669 -6.08199,-4.8759 -7.78711,-8.39822 -2.73184,-5.64321 -3.2819,-18.13726 -5.79174,-131.55046 -0.38036,-17.1875 -0.99384,-35.25131 -1.36329,-40.1418 l -0.67173,-8.8918 -4.59684,-1.40141 c -7.50964,-2.2894 -12.45709,-6.02061 -15.25488,-11.50472 -2.85432,-5.59495 -2.14537,9.94048 -8.7579,-191.91545 -1.50716,-46.00777 -1.22711,-48.377 6.48535,-54.8666 4.57248,-3.84748 8.71777,-4.91465 29.49308,-7.59265 9.10937,-1.17423 16.5625,-2.31228 16.5625,-2.52901 0,-0.21672 -1.9183,-4.22186 -4.2629,-8.9003 -12.45935,-24.86158 -15.2209,-53.453394 -7.53159,-77.978449 8.91284,-28.427509 23.4043,-45.802861 48.66949,-58.355044 35.90257,-17.83702 79.62313,-13.3273134 108.8686,11.229628 22.5204,18.910014 34.18237,44.701421 34.2347,75.712805 0.045,26.63762 -7.01506,46.32864 -23.90438,66.67159 l -4.80436,5.78679 9.67773,1.90757 c 13.45886,2.65288 22.91827,5.16821 26.29565,6.99225 1.57736,0.85189 10.71661,2.85419 20.30943,4.44955 19.07423,3.17219 24.11932,5.5941 28.28678,13.57916 2.73139,5.23348 2.76957,3.89113 -3.97244,139.62289 -6.1046,122.89907 -5.90547,121.03512 -13.54081,126.75035 -2.173,1.62654 -12.81188,7.57221 -23.64196,13.21259 -14.79098,7.70325 -19.82944,10.92798 -20.24712,12.95865 -0.30582,1.48687 -0.88412,15.35966 -1.28511,30.82841 -1.42527,54.98277 -3.27644,95.68171 -4.53137,99.62503 -1.75829,5.52496 -5.70569,8.67842 -33.63267,26.86816 -24.97281,16.26559 -30.5131,18.72551 -38.73767,17.19984 z M 617.36689,474.375 c 0.77393,-96.25 1.7627,-192.57813 2.19726,-214.0625 0.58459,-28.90181 0.41889,-39.0625 -0.63702,-39.0625 -1.01346,0 -1.4338,6.25015 -1.45015,21.5625 -0.0126,11.85937 -0.31017,38.15625 -0.66109,58.4375 -0.82855,47.88376 -3.06589,281.8157 -3.06589,320.56284 0,17.39888 0.46274,29.43981 1.10487,28.74966 0.61479,-0.66078 1.72903,-78.81051 2.51202,-176.1875 z m 63.10166,-42.1875 c 4.707,-180.96504 5.22829,-212.9245 3.30805,-202.8125 -0.52221,2.75 -1.31654,21.875 -1.76516,42.5 -1.70974,78.60255 -3.19967,140.9686 -3.97917,166.5625 -0.50673,16.63771 -0.36217,26.5625 0.3869,26.5625 0.70915,0 1.54328,-13.35504 2.04938,-32.8125 z M 538.05186,92.980099 c 1.10349,-0.423447 3.86999,-4.782822 6.14778,-9.6875 7.18156,-15.463749 20.67324,-24.855088 41.7923,-29.090946 12.35798,-2.478647 14.42472,-3.797041 14.42472,-9.201653 0,-7.628911 -5.09824,-8.980323 -20.7949,-5.512198 -26.64917,5.888041 -49.22409,25.204288 -51.78691,44.311502 -1.00946,7.526135 3.64045,11.704456 10.21701,9.180795 z"
         id="path3352"
         inkscape:connector-curvature="0" />
      <path
         style="fill:#a0a1a1"
         d="m 591.22636,660.85486 c -58.28691,-27.30839 -89.04122,-42.74316 -91.87314,-46.10871 -1.67061,-1.9854 -3.56113,-5.69362 -4.20118,-8.24049 -0.64004,-2.54686 -2.10882,-42.88066 -3.26395,-89.63066 -1.49899,-60.66611 -2.5172,-85.39003 -3.55668,-86.3624 -0.80102,-0.74931 -4.12449,-2.34126 -7.38546,-3.53766 -7.07464,-2.59555 -13.00346,-9.2157 -13.97364,-15.60302 -0.37567,-2.47331 -1.288,-23.34067 -2.02739,-46.37192 -0.73938,-23.03125 -2.34467,-72.8125 -3.56729,-110.625 -1.36765,-42.29772 -1.79363,-70.32624 -1.1071,-72.84666 1.38951,-5.10135 7.35123,-12.02699 11.91122,-13.83708 1.89379,-0.75174 11.50149,-2.45742 21.35045,-3.7904 9.84898,-1.33299 18.22851,-2.74491 18.62122,-3.13761 0.3927,-0.39271 -1.05507,-4.30753 -3.21728,-8.6996 -8.48539,-17.23626 -11.64769,-30.95179 -11.57169,-50.18865 0.0691,-17.487739 3.01914,-29.523485 11.40733,-46.540125 7.70706,-15.63486 18.06622,-26.729824 33.26284,-35.625446 53.73712,-31.456012 121.05474,-10.4706125 142.99237,44.576017 14.14632,35.49644 7.79388,75.616254 -16.3783,103.439694 -6.79349,7.81963 -6.886,7.59961 3.85131,9.15932 6.71498,0.97543 17.03255,3.7494 25.625,6.88953 3.4375,1.25623 13.5625,3.48166 22.5,4.9454 18.39555,3.01272 22.74516,5.15185 27.09324,13.32438 l 2.74999,5.16879 -5.9737,122.33121 c -3.28553,67.28218 -6.51848,124.48581 -7.18434,127.11917 -1.99842,7.9035 -7.7115,12.4571 -30.12269,24.00922 l -20.9375,10.79249 0,4.51656 c 0,7.39061 -3.63929,111.48706 -4.19102,119.8782 -0.81867,12.45063 -2.54184,14.24434 -32.12615,33.4414 -14.44398,9.3726 -27.68688,17.5829 -29.42868,18.24514 -6.74506,2.56446 -12.16804,1.3251 -29.27779,-6.69109 z m 25.47541,-14.29236 c 0.39892,-2.57813 1.60288,-97.78125 2.67551,-211.5625 1.07261,-113.78125 2.35465,-208.81128 2.84896,-211.17783 0.8589,-4.11197 1.28575,-4.40016 9.62342,-6.4972 l 8.72468,-2.19436 19.67664,3.9389 c 10.82216,2.1664 19.88636,4.52764 20.14268,5.2472 0.25633,0.71955 0.0135,19.02704 -0.53954,40.68329 -3.99587,156.4637 -4.80846,200.54566 -3.7169,201.63722 2.18299,2.18299 4.74019,-0.10812 5.54282,-4.96596 0.43585,-2.63794 0.8088,-14.07751 0.82877,-25.42126 0.02,-11.34375 0.57346,-38.0625 1.22994,-59.375 0.65647,-21.3125 1.79276,-64.59956 2.52507,-96.19348 0.7323,-31.59391 1.53235,-57.64437 1.77789,-57.8899 0.24553,-0.24553 7.67721,-2.43827 16.51485,-4.87276 8.83764,-2.4345 16.30281,-4.64966 16.58928,-4.92261 1.13795,-1.08425 -1.17129,-1.69134 -16.16308,-4.24919 -8.57509,-1.46305 -16.50205,-3.48452 -17.61547,-4.49217 -1.11344,-1.00764 -4.77833,-2.15823 -8.1442,-2.55687 -4.97255,-0.58892 -11.74157,0.72203 -36.10893,6.99323 -16.49404,4.24491 -30.52142,8.24259 -31.17197,8.8837 -0.74045,0.72972 -0.34862,1.77567 1.04772,2.7967 2.13099,1.55821 2.17028,7.40305 0.88031,130.94219 -2.87275,275.12256 -2.96578,292.93403 -1.54867,296.49866 1.89254,4.76052 3.52219,4.29546 4.38022,-1.25 z M 530.66796,197.3216 c 9.94513,-2.16061 18.05909,-4.26999 18.03103,-4.6875 -0.028,-0.4175 -3.83774,-3.11445 -8.46596,-5.99321 l -8.41494,-5.23411 -21.84655,3.04502 c -12.0156,1.67475 -22.36216,3.04573 -22.99238,3.0466 -3.47135,0.005 1.64232,1.53674 14.18544,4.24954 15.88135,3.43477 18.40673,4.78544 12.6801,6.78174 -3.7784,1.31716 -5.09461,2.72032 -2.55174,2.72032 0.71113,0 9.42988,-1.76777 19.375,-3.9284 z m 9.60569,-102.783253 c 1.18176,-0.897679 3.81246,-5.340458 5.84601,-9.872841 4.51506,-10.063238 11.61777,-17.22571 21.85995,-22.04391 C 575.62369,59.025618 589.7139,55 594.65625,55 c 4.0181,0 9.45066,-7.14895 8.46193,-11.135417 -1.32843,-5.355992 -5.50504,-8.866852 -10.52357,-8.846107 -11.77104,0.04866 -30.2565,6.375219 -43.00576,14.71851 C 536.19331,58.503205 525,74.882196 525,85.71746 c 0,8.115542 9.2043,13.431241 15.27365,8.820887 z"
         id="path3350"
         inkscape:connector-curvature="0" />
      <path
         style="fill:#fdc101"
         d="m 603.125,665.21314 c -41.07736,-19.48648 -91.30305,-43.64989 -95.96889,-46.17032 -7.54674,-4.07664 -10.73861,-9.2124 -11.54071,-18.56911 -0.34649,-4.04179 -1.50099,-43.62996 -2.56558,-87.97371 -1.06458,-44.34375 -2.14692,-81.2715 -2.40519,-82.06167 -0.25828,-0.79018 -2.61835,-2.11462 -5.24462,-2.94319 -2.62626,-0.82858 -6.82621,-2.82343 -9.33322,-4.433 -8.29173,-5.32351 -8.1747,-4.2922 -11.12797,-98.06214 -1.46156,-46.40625 -3.04668,-96.46875 -3.52252,-111.25 -0.91646,-28.46901 -0.49089,-33.50129 3.26889,-38.65326 3.84571,-5.26973 9.92962,-7.31548 29.53516,-9.93135 10.22745,-1.3646 19.04269,-2.94444 19.58942,-3.51074 0.54674,-0.56631 -1.47176,-6.09215 -4.48557,-12.27965 -7.73834,-15.88721 -9.54395,-23.50999 -10.24436,-43.24886 -0.73132,-20.609841 1.53802,-31.421344 10.46073,-49.83675 10.67857,-22.039241 31.50053,-38.547128 58.58443,-46.4463782 8.5126,-2.482772 12.69591,-2.9064822 28.125,-2.8486573 16.35385,0.061291 19.16326,0.4085131 28.75,3.5532955 31.41986,10.306799 53.63128,33.380357 62.71383,65.148084 3.72736,13.037071 4.00922,39.260996 0.55681,51.804266 -4.39443,15.96573 -12.72854,31.4769 -22.42538,41.73735 -2.5274,2.67429 -4.59526,5.32068 -4.59526,5.88086 0,0.56018 1.82813,1.33871 4.0625,1.73008 15.84578,2.77545 29.91976,6.34252 34.69691,8.79398 1.72394,0.88465 9.31769,2.53441 16.875,3.66612 7.55733,1.1317 16.11522,2.9157 19.01754,3.96443 6.28708,2.27179 11.19609,7.68839 12.29978,13.57155 0.70728,3.77015 -1.44003,51.55523 -9.30765,207.12769 -2.73862,54.15261 -0.17083,48.61184 -29.67922,64.04169 -11.59942,6.06531 -21.76887,11.66535 -22.59877,12.44454 -1.08564,1.01931 -2.06364,18.94836 -3.48653,63.91671 -1.08768,34.375 -2.51782,64.53321 -3.17806,67.01825 -0.66024,2.48504 -2.31416,5.93412 -3.67539,7.66464 -1.36122,1.73051 -14.40787,10.91006 -28.99255,20.39898 -23.8971,15.54765 -27.14221,17.29585 -32.83808,17.69039 -4.36387,0.30228 -7.86832,-0.29647 -11.32048,-1.93412 z m 14.86515,-21.87191 c 0.37697,-4.93143 1.32769,-93.05998 2.1127,-195.84123 0.78501,-102.78125 1.78614,-196.12166 2.22473,-207.42313 l 0.79742,-20.54813 8.72466,-2.19907 8.72468,-2.19906 19.67664,3.9389 c 10.82216,2.1664 19.88636,4.52764 20.14268,5.2472 0.25633,0.71955 0.0135,19.02704 -0.53953,40.68329 -3.50187,137.12032 -4.81389,200.30384 -4.18062,201.3285 1.43163,2.31641 5.52042,1.21407 6.08674,-1.641 0.30683,-1.54688 1.45166,-41.0625 2.54406,-87.8125 1.0924,-46.75 2.34743,-100.3332 2.78894,-119.07378 0.5241,-22.24628 1.27639,-34.43498 2.16725,-35.1144 0.75048,-0.57233 9.16111,-3.18195 18.69031,-5.79913 10.29344,-2.82708 16.63547,-5.13149 15.625,-5.67743 -0.93545,-0.50541 -9.00411,-2.14124 -17.93035,-3.63516 -9.88275,-1.654 -17.10105,-3.50493 -18.4581,-4.73303 -4.12165,-3.73005 -13.74196,-2.49266 -44.68736,5.74775 -16.15625,4.30223 -29.90726,8.34617 -30.55781,8.98653 -0.74019,0.72859 -0.3481,1.77465 1.04772,2.7953 2.13105,1.55826 2.17005,7.39906 0.87414,130.94219 -3.08884,294.4679 -3.10845,298.45928 -1.47625,300.42597 3.03149,3.65271 4.89463,0.85966 5.60235,-8.39859 z M 530.40286,197.39204 c 9.74718,-2.12188 18.14623,-4.26159 18.66455,-4.75492 0.51834,-0.49332 -3.13791,-3.54936 -8.125,-6.79118 -6.57831,-4.2762 -9.92525,-5.72653 -12.19241,-5.28333 -1.71875,0.33599 -12.29425,1.83698 -23.50111,3.33553 -11.20688,1.49853 -19.91631,3.18443 -19.35433,3.74642 0.56199,0.56199 7.40958,2.40333 15.21688,4.09188 15.93367,3.4461 18.46339,4.79571 12.73326,6.79323 -3.8076,1.32735 -5.08999,2.72033 -2.50434,2.72033 0.73722,0 9.31534,-1.73609 19.0625,-3.85796 z m 9.87079,-102.853692 c 1.18176,-0.89768 3.81246,-5.340459 5.84601,-9.872842 4.51506,-10.063238 11.61777,-17.22571 21.85995,-22.04391 C 575.62369,59.025618 589.7139,55 594.65625,55 c 4.0181,0 9.45066,-7.14895 8.46193,-11.135417 -1.32843,-5.355992 -5.50504,-8.866852 -10.52357,-8.846107 -11.77104,0.04866 -30.2565,6.375219 -43.00576,14.71851 C 536.19331,58.503205 525,74.882196 525,85.71746 c 0,8.115542 9.2043,13.431241 15.27365,8.820887 z"
         id="path3348"
         inkscape:connector-curvature="0" />
      <path
         style="fill:#f0aa02"
         d="m 603.125,665.21314 c -41.07736,-19.48648 -91.30305,-43.64989 -95.96889,-46.17032 -7.54674,-4.07664 -10.73861,-9.2124 -11.54071,-18.56911 -0.34649,-4.04179 -1.50099,-43.62996 -2.56558,-87.97371 -1.06458,-44.34375 -2.14692,-81.2715 -2.40519,-82.06167 -0.25828,-0.79018 -2.61835,-2.11462 -5.24462,-2.94319 -2.62626,-0.82858 -6.82621,-2.82343 -9.33322,-4.433 -8.29173,-5.32351 -8.1747,-4.2922 -11.12797,-98.06214 -1.46156,-46.40625 -3.04668,-96.46875 -3.52252,-111.25 -0.91646,-28.46901 -0.49089,-33.50129 3.26889,-38.65326 3.84571,-5.26973 9.92962,-7.31548 29.53516,-9.93135 10.22745,-1.3646 19.04269,-2.94444 19.58942,-3.51074 0.54674,-0.56631 -1.47176,-6.09215 -4.48557,-12.27965 -7.73834,-15.88721 -9.54395,-23.50999 -10.24436,-43.24886 -0.73132,-20.609841 1.53802,-31.421344 10.46073,-49.83675 10.67857,-22.039241 31.50053,-38.547128 58.58443,-46.4463782 8.5126,-2.482772 12.69591,-2.9064822 28.125,-2.8486573 16.35385,0.061291 19.16326,0.4085131 28.75,3.5532955 31.41986,10.306799 53.63128,33.380357 62.71383,65.148084 3.72736,13.037071 4.00922,39.260996 0.55681,51.804266 -4.39443,15.96573 -12.72854,31.4769 -22.42538,41.73735 -2.5274,2.67429 -4.59526,5.32068 -4.59526,5.88086 0,0.56018 1.82813,1.33871 4.0625,1.73008 15.84578,2.77545 29.91976,6.34252 34.69691,8.79398 1.72394,0.88465 9.31769,2.53441 16.875,3.66612 7.55733,1.1317 16.11522,2.9157 19.01754,3.96443 6.28708,2.27179 11.19609,7.68839 12.29978,13.57155 0.70728,3.77015 -1.44003,51.55523 -9.30765,207.12769 -2.73862,54.15261 -0.17083,48.61184 -29.67922,64.04169 -11.59942,6.06531 -21.76887,11.66535 -22.59877,12.44454 -1.08564,1.01931 -2.06364,18.94836 -3.48653,63.91671 -1.08768,34.375 -2.51782,64.53321 -3.17806,67.01825 -0.66024,2.48504 -2.31416,5.93412 -3.67539,7.66464 -1.36122,1.73051 -14.40787,10.91006 -28.99255,20.39898 -23.8971,15.54765 -27.14221,17.29585 -32.83808,17.69039 -4.36387,0.30228 -7.86832,-0.29647 -11.32048,-1.93412 z m 14.8499,-21.87191 c 0.36859,-4.93143 1.4541,-101.94843 2.41224,-215.59333 0.99431,-117.93566 2.22405,-207.09469 2.86496,-207.71645 1.56451,-1.51775 16.49465,-4.45136 17.50624,-3.43979 0.72235,0.72235 -0.93489,104.58343 -2.6074,163.40834 -0.32253,11.34375 -0.74155,33 -0.93118,48.125 l -0.34476,27.5 16.00005,5.3788 c 8.80003,2.95834 18.75489,5.70508 22.12193,6.10385 5.71013,0.67628 6.16222,0.52469 6.72152,-2.2538 0.32979,-1.63836 1.49341,-41.22885 2.58581,-87.97885 1.0924,-46.75 2.34743,-100.3332 2.78894,-119.07377 0.5241,-22.24629 1.27639,-34.43499 2.16725,-35.1144 0.75048,-0.57234 9.16111,-3.18195 18.69031,-5.79914 10.29344,-2.82708 16.63547,-5.13149 15.625,-5.67743 -0.93545,-0.50541 -9.00411,-2.14123 -17.93035,-3.63516 -9.88275,-1.654 -17.10105,-3.50492 -18.4581,-4.73302 -4.11156,-3.72093 -13.74388,-2.4929 -44.22357,5.63803 -27.15599,7.24428 -35.99326,10.42887 -37.17099,13.39489 -11.00642,27.71875 -42.9942,101.94459 -44.70381,103.73265 -3.73357,3.90489 -5.92038,1.33381 -11.18938,-13.15556 C 530.89971,260.20367 511.25,204.59469 511.25,203.07305 c 0,-1.00268 0.32191,-1.82305 0.71536,-1.82305 2.39368,0 36.32989,-7.87796 37.10205,-8.61288 0.51834,-0.49332 -3.13791,-3.54936 -8.125,-6.79118 -6.57831,-4.2762 -9.92525,-5.72653 -12.19241,-5.28333 -1.71875,0.33599 -12.25068,1.831 -23.40427,3.32225 -11.15362,1.49125 -19.97979,3.19596 -19.61374,3.78825 0.36606,0.59229 0.0699,1.07689 -0.65821,1.07689 -1.6823,0 -1.70575,16.8333 -0.0856,61.494 0.68096,18.77205 2.11081,61.12647 3.17744,94.12095 1.06662,32.99446 2.33759,60.35312 2.82437,60.797 0.48678,0.44389 2.12032,1.1798 3.63009,1.63537 2.6761,0.80753 2.7302,0.61484 2.15419,-7.672 -1.77971,-25.60405 -9.35181,-187.47815 -9.02976,-193.03572 0.36552,-6.30796 0.54803,-6.61016 4.62738,-7.6618 8.10538,-2.08954 7.70696,-4.56946 11.54146,71.83945 6.03223,120.20252 7.26197,141.49738 8.43019,145.98275 0.62672,2.40625 1.83744,34.46875 2.69051,71.25 0.85309,36.78125 1.89754,77 2.32103,89.375 l 0.76996,22.5 6.25,3.16609 c 3.4375,1.74133 24.39063,11.83138 46.5625,22.42233 37.71353,18.0148 40.3125,19.46678 40.3125,22.52142 0,3.78096 2.08595,6.34558 4.42969,5.44621 1.02951,-0.39506 1.87065,-3.90951 2.29521,-9.58983 z M 587.72322,178.08592 C 577.98442,175.97181 570.625,172.49146 570.625,170 c 0,-1.26581 4.67039,-3.51236 14.375,-6.91464 17.36821,-6.089 24.88022,-10.3357 33.125,-18.72625 7.14739,-7.27377 12.09696,-16.40357 15.23889,-28.10911 2.39838,-8.9354 3.11792,-40.176838 1.25987,-54.702271 -0.87514,-6.84138 -0.7276,-7.932277 1.17126,-8.660942 5.04696,-1.936696 20.58529,21.895999 24.72204,37.918644 6.01065,23.280739 -1.15405,50.322559 -18.1603,68.542729 -8.17936,8.7632 -6.96292,9.30255 2.72524,1.20833 C 684.22312,127.85501 677.36804,59.218068 632.62112,35.791386 619.62219,28.985955 611.28116,26.996225 595.625,26.966054 579.77635,26.935504 570.5406,29.105819 556.875,36.07191 521.82786,53.937326 508.57511,100.37674 527.21629,140 c 10.76865,22.88959 36.88382,39.7794 61.53371,39.79649 l 6.875,0.005 -7.90178,-1.71533 z"
         id="path3346"
         inkscape:connector-curvature="0" />
      <path
         style="fill:#dd4d02"
         d="m 603.125,665.21314 c -41.07736,-19.48648 -91.30305,-43.64989 -95.96889,-46.17032 -7.54674,-4.07664 -10.73861,-9.2124 -11.54071,-18.56911 -0.34649,-4.04179 -1.50099,-43.62996 -2.56558,-87.97371 -1.06458,-44.34375 -2.14692,-81.2715 -2.40519,-82.06167 -0.25828,-0.79018 -2.61835,-2.11462 -5.24462,-2.94319 -2.62626,-0.82858 -6.82621,-2.82343 -9.33322,-4.433 -8.29173,-5.32351 -8.1747,-4.2922 -11.12797,-98.06214 -1.46156,-46.40625 -3.04668,-96.46875 -3.52252,-111.25 -0.91646,-28.46901 -0.49089,-33.50129 3.26889,-38.65326 3.84571,-5.26973 9.92962,-7.31548 29.53516,-9.93135 10.22745,-1.3646 19.04269,-2.94444 19.58942,-3.51074 0.54674,-0.56631 -1.47176,-6.09215 -4.48557,-12.27965 -7.73834,-15.88721 -9.54395,-23.50999 -10.24436,-43.24886 -0.73132,-20.609841 1.53802,-31.421344 10.46073,-49.83675 10.67857,-22.039241 31.50053,-38.547128 58.58443,-46.4463782 8.5126,-2.482772 12.69591,-2.9064822 28.125,-2.8486573 16.35385,0.061291 19.16326,0.4085131 28.75,3.5532955 31.41986,10.306799 53.63128,33.380357 62.71383,65.148084 3.72736,13.037071 4.00922,39.260996 0.55681,51.804266 -4.39443,15.96573 -12.72854,31.4769 -22.42538,41.73735 -2.5274,2.67429 -4.59526,5.32068 -4.59526,5.88086 0,0.56018 1.82813,1.33871 4.0625,1.73008 15.84578,2.77545 29.91976,6.34252 34.69691,8.79398 1.72394,0.88465 9.31769,2.53441 16.875,3.66612 7.55733,1.1317 16.11522,2.9157 19.01754,3.96443 6.28708,2.27179 11.19609,7.68839 12.29978,13.57155 0.70728,3.77015 -1.44003,51.55523 -9.30765,207.12769 -2.73862,54.15261 -0.17083,48.61184 -29.67922,64.04169 -11.59942,6.06531 -21.76887,11.66535 -22.59877,12.44454 -1.08564,1.01931 -2.06364,18.94836 -3.48653,63.91671 -1.08768,34.375 -2.51782,64.53321 -3.17806,67.01825 -0.66024,2.48504 -2.31416,5.93412 -3.67539,7.66464 -1.36122,1.73051 -14.40787,10.91006 -28.99255,20.39898 -23.8971,15.54765 -27.14221,17.29585 -32.83808,17.69039 -4.36387,0.30228 -7.86832,-0.29647 -11.32048,-1.93412 z m 14.87071,-21.87191 c 0.38004,-4.93143 0.997,-41.02873 1.37104,-80.21623 2.70814,-283.72875 3.40161,-340.10614 4.1934,-340.9154 1.76581,-1.80476 13.2677,-4.63175 14.36801,-3.53144 1.00567,1.00567 0.5691,30.43267 -2.81981,190.07184 -0.53271,25.09375 -0.54394,46.47864 -0.025,47.52197 0.52163,1.04864 7.56171,3.95158 15.7426,6.49135 23.9389,7.4319 25.19413,7.67483 28.49169,5.51419 3.33,-2.1819 2.95881,6.11012 6.85018,-153.02892 1.21548,-49.70701 2.71557,-90.86695 3.33355,-91.46651 0.61798,-0.59957 8.43609,-3.13815 17.37359,-5.64132 8.9375,-2.50315 16.7285,-5.02171 17.31333,-5.5968 1.4156,-1.39201 -0.79817,-1.97782 -19.17998,-5.07538 -8.58916,-1.44739 -16.50526,-3.4358 -17.59136,-4.4187 -4.87829,-4.41479 -11.75423,-3.66043 -45.41765,4.98277 -17.77063,4.56268 -33.35945,8.8573 -34.64184,9.54361 -3.17762,1.70062 -3.31079,1.98795 -24.87536,53.67374 -21.79093,52.22831 -21.91714,52.5 -24.38924,52.5 -1.01356,0 -1.84286,-0.22378 -1.84286,-0.49729 0,-0.2735 -9.5769,-27.08969 -21.28199,-59.59153 -11.70509,-32.50184 -21.08014,-59.69994 -20.83342,-60.44022 0.24671,-0.74027 8.27674,-3.07305 17.84448,-5.18394 9.64028,-2.12688 17.39593,-4.45812 17.39593,-5.22897 0,-0.76505 -3.93349,-3.97453 -8.74108,-7.13217 -6.36528,-4.18073 -9.59287,-5.57282 -11.875,-5.12177 -1.72366,0.34066 -12.2768,1.84187 -23.45142,3.33599 -11.17463,1.49413 -21.17219,3.34156 -22.2168,4.10541 -1.69738,1.24115 -1.63407,9.49533 0.59541,77.63415 1.3721,41.93494 2.82588,89.46409 3.23062,105.62034 0.40473,16.15625 1.00282,30.67769 1.32907,32.26988 0.62664,3.05813 8.2937,7.22128 10.63463,5.77451 0.79112,-0.48894 0.98588,-4.39435 0.51626,-10.35226 C 498.28325,384.81657 490,217.15827 490,208.74717 c 0,-6.17528 0.36061,-7.2999 2.52199,-7.86511 1.3871,-0.36274 3.22146,0.04 4.07638,0.89489 1.12488,1.12487 2.87995,28.4676 6.35147,98.95122 2.63838,53.56825 4.97021,100.49058 5.18183,104.27183 0.21162,3.78125 1.00065,8.28125 1.75342,10 0.87072,1.98809 2.24523,36.25275 3.77806,94.18211 1.32517,50.0814 2.63275,91.28045 2.90574,91.55344 0.27298,0.27299 21.54728,10.55859 47.27622,22.85689 34.13261,16.31521 46.90074,22.99208 47.2269,24.69655 0.64965,3.395 2.6115,5.40806 4.54675,4.66543 1.09964,-0.42196 1.92629,-3.76522 2.37695,-9.6132 z m 1.75178,-466.28359 c 31.96341,-11.21048 50.70298,-36.12319 52.41328,-69.67916 1.86054,-36.503514 -16.39103,-65.455089 -49.24318,-78.11206 -12.50558,-4.818034 -34.5338,-5.68932 -48.30701,-1.910696 -29.19418,8.009305 -45.82332,23.818434 -54.44207,51.757426 -9.52426,30.87436 1.93236,69.75856 25.73391,87.3418 15.41701,11.3892 27.55793,14.91826 49.09758,14.27143 12.73911,-0.38257 17.3099,-1.06017 24.74749,-3.66874 z M 581.25,174.00959 c -3.78125,-1.22284 -6.86375,-2.76588 -6.85001,-3.42896 0.0137,-0.66311 5.63875,-3.19307 12.5,-5.62217 6.86126,-2.4291 15.49013,-6.06786 19.1753,-8.08615 14.14047,-7.74446 24.89993,-22.27502 29.61684,-39.99731 2.51288,-9.44134 3.66741,-37.030191 2.06622,-49.375 -0.66879,-5.15625 -0.77624,-9.852402 -0.23877,-10.435895 1.52167,-1.651985 11.18539,11.35621 15.64603,21.060895 5.79953,12.617631 7.25353,20.220456 6.54243,34.20985 -1.34318,26.4242 -15.66194,48.52606 -38.45804,59.36225 -7.14265,3.39527 -9.63631,3.90295 -20.625,4.19904 -9.3105,0.25086 -14.25423,-0.23052 -19.375,-1.88655 z"
         id="path3344"
         inkscape:connector-curvature="0" />
      <path
         style="fill:#5d5f5e"
         d="m 603.125,665.21314 c -41.07736,-19.48648 -91.30305,-43.64989 -95.96889,-46.17032 -7.54674,-4.07664 -10.73861,-9.2124 -11.54071,-18.56911 -0.34649,-4.04179 -1.50099,-43.62996 -2.56558,-87.97371 -1.06458,-44.34375 -2.14692,-81.2715 -2.40519,-82.06167 -0.25828,-0.79018 -2.61835,-2.11462 -5.24462,-2.94319 -2.62626,-0.82858 -6.82621,-2.82343 -9.33322,-4.433 -8.29173,-5.32351 -8.1747,-4.2922 -11.12797,-98.06214 -1.46156,-46.40625 -3.04668,-96.46875 -3.52252,-111.25 -0.91646,-28.46901 -0.49089,-33.50129 3.26889,-38.65326 3.84571,-5.26973 9.92962,-7.31548 29.53516,-9.93135 10.22745,-1.3646 19.04269,-2.94444 19.58942,-3.51074 0.54674,-0.56631 -1.47176,-6.09215 -4.48557,-12.27965 -7.73834,-15.88721 -9.54395,-23.50999 -10.24436,-43.24886 -0.73132,-20.609841 1.53802,-31.421344 10.46073,-49.83675 10.67857,-22.039241 31.50053,-38.547128 58.58443,-46.4463782 8.5126,-2.482772 12.69591,-2.9064822 28.125,-2.8486573 16.35385,0.061291 19.16326,0.4085131 28.75,3.5532955 31.41986,10.306799 53.63128,33.380357 62.71383,65.148084 3.72736,13.037071 4.00922,39.260996 0.55681,51.804266 -4.39443,15.96573 -12.72854,31.4769 -22.42538,41.73735 -2.5274,2.67429 -4.59526,5.32068 -4.59526,5.88086 0,0.56018 1.82813,1.33871 4.0625,1.73008 15.84578,2.77545 29.91976,6.34252 34.69691,8.79398 1.72394,0.88465 9.31769,2.53441 16.875,3.66612 7.55733,1.1317 16.11522,2.9157 19.01754,3.96443 6.28708,2.27179 11.19609,7.68839 12.29978,13.57155 0.70728,3.77015 -1.44003,51.55523 -9.30765,207.12769 -2.73862,54.15261 -0.17083,48.61184 -29.67922,64.04169 -11.59942,6.06531 -21.76887,11.66535 -22.59877,12.44454 -1.08564,1.01931 -2.06364,18.94836 -3.48653,63.91671 -1.08768,34.375 -2.51782,64.53321 -3.17806,67.01825 -0.66024,2.48504 -2.31416,5.93412 -3.67539,7.66464 -1.36122,1.73051 -14.40787,10.91006 -28.99255,20.39898 -23.8971,15.54765 -27.14221,17.29585 -32.83808,17.69039 -4.36387,0.30228 -7.86832,-0.29647 -11.32048,-1.93412 z M 617.5,648.19191 c 0,-2.97573 0.74122,-4.3797 2.8125,-5.32721 5.43601,-2.48672 39.81553,-25.4959 40.31878,-26.98415 0.28001,-0.82805 1.37163,-28.7868 2.42585,-62.13055 2.48131,-78.48162 2.70302,-83.67681 3.60972,-84.58352 0.4188,-0.4188 3.23915,-0.0677 6.26744,0.78012 l 5.50599,1.54159 18.90103,-9.57375 c 14.30143,-7.24395 19.04587,-10.23879 19.49615,-12.30659 0.58785,-2.6995 1.36349,-16.93457 5.05284,-92.73285 4.72696,-97.11609 5.59484,-114.70097 6.36233,-128.91251 l 0.81885,-15.16251 -4.22324,-1.35399 c -2.32278,-0.74469 -11.25073,-2.53638 -19.83989,-3.9815 -8.58916,-1.44514 -16.46416,-3.38753 -17.5,-4.31641 -2.17257,-1.94824 -8.24152,-3.30415 -34.77781,-7.76999 l -19.14446,-3.22186 -11.48054,3.59403 c -10.416,3.26077 -13.16119,3.59545 -29.60554,3.60938 -16.51282,0.014 -19.18126,-0.3095 -30,-3.63689 -6.9891,-2.14955 -15.21799,-5.79967 -20,-8.87151 -4.46875,-2.8706 -8.72824,-5.55793 -9.46551,-5.97184 -2.39156,-1.3426 -50.69825,6.1169 -51.8981,8.01409 -0.60229,0.95234 -0.84853,3.41901 -0.5472,5.48151 0.30131,2.0625 0.86637,16.96875 1.25566,33.125 0.68296,28.34339 1.60213,56.94988 4.47754,139.35161 0.74326,21.29963 1.85244,39.33034 2.46484,40.06825 0.61241,0.7379 5.21393,2.65698 10.22562,4.2646 5.01168,1.60763 9.61618,3.37469 10.23221,3.92682 0.61603,0.55211 1.835,28.45606 2.70884,62.00878 3.16986,121.71435 3.21065,122.65228 5.41473,124.52552 1.10351,0.93785 22.66048,11.49815 47.9044,23.46731 30.95378,14.67644 45.91088,22.39295 45.9375,23.69961 0.0217,1.06563 0.67051,2.56854 1.4418,3.33983 2.36149,2.3615 4.84767,0.33036 4.84767,-3.96042 z m 0.625,-469.89171 c 35.99365,-11.55966 57.69596,-43.2963 55.26507,-80.817546 -2.13676,-32.981255 -21.1788,-58.376144 -52.15476,-69.554784 -8.34837,-3.012769 -11.11709,-3.379585 -25.61031,-3.393004 -14.27041,-0.01321 -17.4682,0.389494 -26.25,3.305734 -17.57715,5.836981 -32.16071,16.516446 -40.71661,29.816558 -2.0458,3.180187 -5.47568,10.492687 -7.62195,16.25 -3.30024,8.85282 -3.99304,12.699082 -4.49039,24.929728 -1.02155,25.121134 5.70322,44.312014 21.27024,60.700014 9.46176,9.96079 21.84381,17.22524 35.93371,21.08203 10.50699,2.87604 31.63791,1.77189 44.375,-2.31873 z"
         id="path3342"
         inkscape:connector-curvature="0" />
      <path
         style="fill:#070909"
         d="m 606.39284,664.89829 c -7.80923,-3.1247 -98.69348,-46.86655 -101.7242,-48.95903 -7.69898,-5.31556 -7.39922,-2.37145 -9.89562,-97.18926 -1.258,-47.78125 -2.54135,-87.56165 -2.85187,-88.4009 -0.31053,-0.83924 -4.13823,-3.14626 -8.506,-5.1267 -9.29945,-4.21658 -13.03776,-8.40466 -13.94505,-15.62288 -1.0367,-8.24778 -6.1312,-174.84586 -6.24366,-204.17766 l -0.10138,-26.45312 3.125,-3.35314 c 4.9533,-5.31491 8.34003,-6.45678 25.625,-8.63973 27.48466,-3.47108 27.03411,-3.22357 21.72419,-11.9339 -8.31106,-13.63322 -13.61029,-34.05002 -13.57755,-52.31119 0.0795,-44.320694 24.871,-78.272154 66.2283,-90.69822 48.31055,-14.515214 99.00246,8.759769 116.33857,53.416377 14.12401,36.382433 6.95528,76.154123 -18.68338,103.654353 -6.77155,7.26322 -6.21641,8.16487 6.32799,10.27807 11.14731,1.87784 24.29505,5.33963 28.52623,7.51091 1.72394,0.88465 9.31769,2.55189 16.875,3.70495 7.55733,1.15308 15.79858,2.62325 18.3139,3.26707 4.90008,1.25421 11.7863,8.01238 12.96219,12.72113 0.6228,2.49398 -9.52874,220.28788 -11.24826,241.32333 -0.78476,9.60026 -2.81282,14.40169 -7.71018,18.25395 -1.84134,1.4484 -12.289,7.1557 -23.21703,12.6829 -10.92804,5.5272 -20.14238,10.76149 -20.47633,11.63174 -0.33395,0.87025 -1.59995,30.79887 -2.81335,66.50805 -2.03101,59.77108 -2.39926,65.25363 -4.63826,69.05549 -1.72685,2.93221 -9.89641,8.98561 -28.17368,20.87587 -14.15787,9.21039 -27.27261,17.32825 -29.14387,18.0397 -4.1257,1.56859 -9.08618,1.54656 -13.0967,-0.0581 z m 10.37992,-10.65703 c 1.1279,-0.43281 1.97724,-2.2095 1.97724,-4.13608 0,-1.85754 0.70312,-4.2871 1.5625,-5.39902 0.85937,-1.11192 10.07669,-7.63845 20.48293,-14.5034 10.40623,-6.86496 19.28042,-13.06421 19.72041,-13.77612 0.43998,-0.71191 1.35524,-18.05853 2.03391,-38.54801 3.02914,-91.45255 3.65284,-106.99788 4.31962,-107.66467 0.39018,-0.39017 2.99789,-0.0986 5.79493,0.64799 4.94656,1.32031 5.58586,1.10071 23.39811,-8.0374 10.07193,-5.16715 18.97744,-10.02587 19.79004,-10.79719 1.57285,-1.49292 2.21771,-12.36698 9.33966,-157.49257 3.75808,-76.57913 3.89534,-82.44658 1.96174,-83.86046 -1.14347,-0.83613 -9.5311,-2.76004 -18.63916,-4.27535 -9.91702,-1.6499 -17.4331,-3.54515 -18.73632,-4.72454 -1.31776,-1.19256 -7.00387,-2.60403 -14.41477,-3.57818 -6.73124,-0.88481 -19.02936,-2.60858 -27.32919,-3.83061 l -15.09059,-2.22186 -8.65941,2.76282 c -17.3554,5.53732 -34.73391,6.63452 -51.52461,3.25303 -10.91006,-2.19718 -18.134,-5.37983 -31.22259,-13.75575 l -9.08779,-5.81564 -24.41508,3.32019 c -13.4283,1.82611 -25.22942,3.63269 -26.22472,4.01461 -2.308,0.88566 -2.30652,4.68048 0.0294,75.42695 1.01012,30.59375 2.48282,75.59375 3.27267,100 0.78984,24.40625 1.9738,45.04599 2.63102,45.86608 0.65721,0.8201 5.65368,2.97598 11.10327,4.79086 7.76386,2.58561 10.0304,3.88612 10.47229,6.00892 0.31016,1.49003 1.50191,42.64664 2.64834,91.45914 1.53961,65.55351 2.49135,89.40343 3.64135,91.25 0.9197,1.47678 20.42725,11.50946 47.66202,24.51248 33.9709,16.21911 46.22274,22.63425 46.5521,24.375 0.88208,4.66196 3.13345,6.19362 6.95075,4.72878 z m 0.90085,-474.98567 C 653.34246,168.02261 673.99749,139.97961 674.20779,102.5 674.41544,65.492599 651.28881,34.826034 616.05083,25.382205 605.22136,22.479895 584.53659,22.584351 573.75,25.595821 c -34.98393,9.767036 -56.38153,36.38819 -58.39003,72.644103 -2.34296,42.293326 23.9771,77.086876 63.69918,84.206516 10.44249,1.87167 26.84226,0.5165 38.61446,-3.19085 z"
         id="path3340"
         inkscape:connector-curvature="0" />
    </g>
  </g>
</svg>
